<svg id="visual" viewBox="0 0 1920 1080" width="1920" height="1080" xmlns="http://www.w3.org/2000/svg" xmlns:xlink="http://www.w3.org/1999/xlink" version="1.1"><rect x="0" y="0" width="1920" height="1080" fill="#30475E"></rect><defs><linearGradient id="grad1_0" x1="43.8%" y1="0%" x2="100%" y2="100%"><stop offset="14.444444444444446%" stop-color="#30475e" stop-opacity="1"></stop><stop offset="85.55555555555554%" stop-color="#30475e" stop-opacity="1"></stop></linearGradient></defs><defs><linearGradient id="grad2_0" x1="0%" y1="0%" x2="56.3%" y2="100%"><stop offset="14.444444444444446%" stop-color="#30475e" stop-opacity="1"></stop><stop offset="85.55555555555554%" stop-color="#30475e" stop-opacity="1"></stop></linearGradient></defs><g transform="translate(1920, 0)"><path d="M0 648C-79.6 660.5 -159.3 673.1 -200.2 616.3C-241.2 559.5 -243.5 433.4 -268 368.9C-292.6 304.4 -339.4 301.6 -385.9 280.4C-432.4 259.1 -478.5 219.5 -522.1 169.7C-565.8 119.9 -606.9 59.9 -648 0L0 0Z" fill="#F05454"></path></g><g transform="translate(0, 1080)"><path d="M0 -648C68.8 -644.8 137.5 -641.7 200.2 -616.3C262.9 -590.9 319.6 -543.2 354.4 -487.8C389.3 -432.5 402.5 -369.4 443.3 -322.1C484.2 -274.8 552.8 -243.3 591.6 -192.2C630.3 -141.2 639.1 -70.6 648 0L0 0Z" fill="#F05454"></path></g></svg>