<svg id="visual" viewBox="0 0 1920 1080" width="1920" height="1080" xmlns="http://www.w3.org/2000/svg" xmlns:xlink="http://www.w3.org/1999/xlink" version="1.1"><path d="M0 12L87 12L87 33L175 33L175 55L262 55L262 87L349 87L349 23L436 23L436 12L524 12L524 77L611 77L611 44L698 44L698 0L785 0L785 66L873 66L873 0L960 0L960 12L1047 12L1047 44L1135 44L1135 0L1222 0L1222 33L1309 33L1309 87L1396 87L1396 55L1484 55L1484 77L1571 77L1571 98L1658 98L1658 44L1745 44L1745 55L1833 55L1833 33L1920 33L1920 33L1920 0L1920 0L1833 0L1833 0L1745 0L1745 0L1658 0L1658 0L1571 0L1571 0L1484 0L1484 0L1396 0L1396 0L1309 0L1309 0L1222 0L1222 0L1135 0L1135 0L1047 0L1047 0L960 0L960 0L873 0L873 0L785 0L785 0L698 0L698 0L611 0L611 0L524 0L524 0L436 0L436 0L349 0L349 0L262 0L262 0L175 0L175 0L87 0L87 0L0 0Z" fill="#f5f5f5"></path><path d="M0 109L87 109L87 141L175 141L175 152L262 152L262 131L349 131L349 77L436 77L436 152L524 152L524 163L611 163L611 195L698 195L698 44L785 44L785 66L873 66L873 109L960 109L960 120L1047 120L1047 152L1135 152L1135 23L1222 23L1222 152L1309 152L1309 163L1396 163L1396 66L1484 66L1484 163L1571 163L1571 174L1658 174L1658 131L1745 131L1745 66L1833 66L1833 141L1920 141L1920 55L1920 31L1920 31L1833 31L1833 53L1745 53L1745 42L1658 42L1658 96L1571 96L1571 75L1484 75L1484 53L1396 53L1396 85L1309 85L1309 31L1222 31L1222 0L1135 0L1135 42L1047 42L1047 10L960 10L960 0L873 0L873 64L785 64L785 0L698 0L698 42L611 42L611 75L524 75L524 10L436 10L436 21L349 21L349 85L262 85L262 53L175 53L175 31L87 31L87 10L0 10Z" fill="#f8e6e4"></path><path d="M0 152L87 152L87 217L175 217L175 152L262 152L262 131L349 131L349 109L436 109L436 206L524 206L524 228L611 228L611 217L698 217L698 109L785 109L785 66L873 66L873 131L960 131L960 206L1047 206L1047 185L1135 185L1135 77L1222 77L1222 249L1309 249L1309 206L1396 206L1396 152L1484 152L1484 217L1571 217L1571 239L1658 239L1658 163L1745 163L1745 109L1833 109L1833 217L1920 217L1920 152L1920 53L1920 139L1833 139L1833 64L1745 64L1745 129L1658 129L1658 172L1571 172L1571 161L1484 161L1484 64L1396 64L1396 161L1309 161L1309 150L1222 150L1222 21L1135 21L1135 150L1047 150L1047 118L960 118L960 107L873 107L873 64L785 64L785 42L698 42L698 193L611 193L611 161L524 161L524 150L436 150L436 75L349 75L349 129L262 129L262 150L175 150L175 139L87 139L87 107L0 107Z" fill="#fbd7d3"></path><path d="M0 228L87 228L87 260L175 260L175 185L262 185L262 217L349 217L349 141L436 141L436 271L524 271L524 293L611 293L611 271L698 271L698 109L785 109L785 109L873 109L873 185L960 185L960 271L1047 271L1047 195L1135 195L1135 98L1222 98L1222 271L1309 271L1309 228L1396 228L1396 185L1484 185L1484 282L1571 282L1571 303L1658 303L1658 185L1745 185L1745 195L1833 195L1833 217L1920 217L1920 195L1920 150L1920 215L1833 215L1833 107L1745 107L1745 161L1658 161L1658 237L1571 237L1571 215L1484 215L1484 150L1396 150L1396 204L1309 204L1309 247L1222 247L1222 75L1135 75L1135 183L1047 183L1047 204L960 204L960 129L873 129L873 64L785 64L785 107L698 107L698 215L611 215L611 226L524 226L524 204L436 204L436 107L349 107L349 129L262 129L262 150L175 150L175 215L87 215L87 150L0 150Z" fill="#fcc8c2"></path><path d="M0 314L87 314L87 444L175 444L175 260L262 260L262 293L349 293L349 260L436 260L436 293L524 293L524 303L611 303L611 465L698 465L698 347L785 347L785 239L873 239L873 347L960 347L960 444L1047 444L1047 303L1135 303L1135 120L1222 120L1222 282L1309 282L1309 368L1396 368L1396 379L1484 379L1484 411L1571 411L1571 573L1658 573L1658 249L1745 249L1745 303L1833 303L1833 422L1920 422L1920 379L1920 193L1920 215L1833 215L1833 193L1745 193L1745 183L1658 183L1658 301L1571 301L1571 280L1484 280L1484 183L1396 183L1396 226L1309 226L1309 269L1222 269L1222 96L1135 96L1135 193L1047 193L1047 269L960 269L960 183L873 183L873 107L785 107L785 107L698 107L698 269L611 269L611 291L524 291L524 269L436 269L436 139L349 139L349 215L262 215L262 183L175 183L175 258L87 258L87 226L0 226Z" fill="#fcb8b1"></path><path d="M0 411L87 411L87 465L175 465L175 314L262 314L262 465L349 465L349 411L436 411L436 455L524 455L524 325L611 325L611 509L698 509L698 573L785 573L785 444L873 444L873 455L960 455L960 541L1047 541L1047 509L1135 509L1135 217L1222 217L1222 293L1309 293L1309 465L1396 465L1396 390L1484 390L1484 498L1571 498L1571 617L1658 617L1658 411L1745 411L1745 379L1833 379L1833 595L1920 595L1920 519L1920 377L1920 420L1833 420L1833 301L1745 301L1745 247L1658 247L1658 571L1571 571L1571 409L1484 409L1484 377L1396 377L1396 366L1309 366L1309 280L1222 280L1222 118L1135 118L1135 301L1047 301L1047 442L960 442L960 345L873 345L873 237L785 237L785 345L698 345L698 463L611 463L611 301L524 301L524 291L436 291L436 258L349 258L349 291L262 291L262 258L175 258L175 442L87 442L87 312L0 312Z" fill="#fca9a1"></path><path d="M0 465L87 465L87 519L175 519L175 390L262 390L262 552L349 552L349 530L436 530L436 563L524 563L524 379L611 379L611 519L698 519L698 671L785 671L785 530L873 530L873 465L960 465L960 541L1047 541L1047 530L1135 530L1135 325L1222 325L1222 401L1309 401L1309 476L1396 476L1396 401L1484 401L1484 606L1571 606L1571 660L1658 660L1658 433L1745 433L1745 401L1833 401L1833 671L1920 671L1920 606L1920 517L1920 593L1833 593L1833 377L1745 377L1745 409L1658 409L1658 615L1571 615L1571 496L1484 496L1484 388L1396 388L1396 463L1309 463L1309 291L1222 291L1222 215L1135 215L1135 507L1047 507L1047 539L960 539L960 453L873 453L873 442L785 442L785 571L698 571L698 507L611 507L611 323L524 323L524 453L436 453L436 409L349 409L349 463L262 463L262 312L175 312L175 463L87 463L87 409L0 409Z" fill="#fb9991"></path><path d="M0 919L87 919L87 584L175 584L175 541L262 541L262 995L349 995L349 573L436 573L436 746L524 746L524 519L611 519L611 671L698 671L698 800L785 800L785 584L873 584L873 649L960 649L960 930L1047 930L1047 779L1135 779L1135 908L1222 908L1222 660L1309 660L1309 843L1396 843L1396 822L1484 822L1484 887L1571 887L1571 822L1658 822L1658 703L1745 703L1745 768L1833 768L1833 833L1920 833L1920 811L1920 604L1920 669L1833 669L1833 399L1745 399L1745 431L1658 431L1658 658L1571 658L1571 604L1484 604L1484 399L1396 399L1396 474L1309 474L1309 399L1222 399L1222 323L1135 323L1135 528L1047 528L1047 539L960 539L960 463L873 463L873 528L785 528L785 669L698 669L698 517L611 517L611 377L524 377L524 561L436 561L436 528L349 528L349 550L262 550L262 388L175 388L175 517L87 517L87 463L0 463Z" fill="#f98981"></path><path d="M0 951L87 951L87 617L175 617L175 606L262 606L262 1027L349 1027L349 681L436 681L436 746L524 746L524 584L611 584L611 692L698 692L698 822L785 822L785 746L873 746L873 757L960 757L960 941L1047 941L1047 833L1135 833L1135 951L1222 951L1222 703L1309 703L1309 887L1396 887L1396 984L1484 984L1484 995L1571 995L1571 822L1658 822L1658 746L1745 746L1745 897L1833 897L1833 833L1920 833L1920 984L1920 809L1920 831L1833 831L1833 766L1745 766L1745 701L1658 701L1658 820L1571 820L1571 885L1484 885L1484 820L1396 820L1396 841L1309 841L1309 658L1222 658L1222 906L1135 906L1135 777L1047 777L1047 928L960 928L960 647L873 647L873 582L785 582L785 798L698 798L698 669L611 669L611 517L524 517L524 744L436 744L436 571L349 571L349 993L262 993L262 539L175 539L175 582L87 582L87 917L0 917Z" fill="#f77972"></path><path d="M0 984L87 984L87 973L175 973L175 1070L262 1070L262 1070L349 1070L349 1016L436 1016L436 1070L524 1070L524 995L611 995L611 1027L698 1027L698 1027L785 1027L785 1081L873 1081L873 995L960 995L960 984L1047 984L1047 962L1135 962L1135 995L1222 995L1222 973L1309 973L1309 1016L1396 1016L1396 995L1484 995L1484 1059L1571 1059L1571 1049L1658 1049L1658 1038L1745 1038L1745 1049L1833 1049L1833 973L1920 973L1920 1081L1920 982L1920 831L1833 831L1833 895L1745 895L1745 744L1658 744L1658 820L1571 820L1571 993L1484 993L1484 982L1396 982L1396 885L1309 885L1309 701L1222 701L1222 949L1135 949L1135 831L1047 831L1047 939L960 939L960 755L873 755L873 744L785 744L785 820L698 820L698 690L611 690L611 582L524 582L524 744L436 744L436 679L349 679L349 1025L262 1025L262 604L175 604L175 615L87 615L87 949L0 949Z" fill="#f46763"></path><path d="M0 1081L87 1081L87 1081L175 1081L175 1081L262 1081L262 1081L349 1081L349 1081L436 1081L436 1081L524 1081L524 1081L611 1081L611 1081L698 1081L698 1081L785 1081L785 1081L873 1081L873 1081L960 1081L960 1081L1047 1081L1047 1081L1135 1081L1135 1081L1222 1081L1222 1081L1309 1081L1309 1081L1396 1081L1396 1081L1484 1081L1484 1081L1571 1081L1571 1081L1658 1081L1658 1081L1745 1081L1745 1081L1833 1081L1833 1081L1920 1081L1920 1081L1920 1079L1920 971L1833 971L1833 1047L1745 1047L1745 1036L1658 1036L1658 1047L1571 1047L1571 1057L1484 1057L1484 993L1396 993L1396 1014L1309 1014L1309 971L1222 971L1222 993L1135 993L1135 960L1047 960L1047 982L960 982L960 993L873 993L873 1079L785 1079L785 1025L698 1025L698 1025L611 1025L611 993L524 993L524 1068L436 1068L436 1014L349 1014L349 1068L262 1068L262 1068L175 1068L175 971L87 971L87 982L0 982Z" fill="#f05454"></path></svg>