<svg id="visual" viewBox="0 0 1920 1080" width="1920" height="1080" xmlns="http://www.w3.org/2000/svg" xmlns:xlink="http://www.w3.org/1999/xlink" version="1.1"><rect x="0" y="0" width="1920" height="1080" fill="#F05454"></rect><path d="M760 0L1509 0L1509 77L829 77L829 154L916 154L916 231L978 231L978 309L1259 309L1259 386L666 386L666 463L441 463L441 540L736 540L736 617L560 617L560 694L957 694L957 771L913 771L913 849L1391 849L1391 926L1181 926L1181 1003L1215 1003L1215 1080L0 1080L0 1003L0 1003L0 926L0 926L0 849L0 849L0 771L0 771L0 694L0 694L0 617L0 617L0 540L0 540L0 463L0 463L0 386L0 386L0 309L0 309L0 231L0 231L0 154L0 154L0 77L0 77L0 0L0 0Z" fill="#30475e"></path><path d="M1317 0L802 0L802 77L1055 77L1055 154L1264 154L1264 231L310 231L310 309L435 309L435 386L590 386L590 463L1260 463L1260 540L1284 540L1284 617L315 617L315 694L1278 694L1278 771L813 771L813 849L927 849L927 926L1140 926L1140 1003L1323 1003L1323 1080L0 1080L0 1003L0 1003L0 926L0 926L0 849L0 849L0 771L0 771L0 694L0 694L0 617L0 617L0 540L0 540L0 463L0 463L0 386L0 386L0 309L0 309L0 231L0 231L0 154L0 154L0 77L0 77L0 0L0 0Z" fill="#2a3c4e"></path><path d="M562 0L453 0L453 77L933 77L933 154L856 154L856 231L535 231L535 309L234 309L234 386L1096 386L1096 463L644 463L644 540L252 540L252 617L426 617L426 694L1000 694L1000 771L1087 771L1087 849L362 849L362 926L433 926L433 1003L270 1003L270 1080L0 1080L0 1003L0 1003L0 926L0 926L0 849L0 849L0 771L0 771L0 694L0 694L0 617L0 617L0 540L0 540L0 463L0 463L0 386L0 386L0 309L0 309L0 231L0 231L0 154L0 154L0 77L0 77L0 0L0 0Z" fill="#25313e"></path><path d="M884 0L610 0L610 77L802 77L802 154L877 154L877 231L235 231L235 309L874 309L874 386L285 386L285 463L396 463L396 540L351 540L351 617L809 617L809 694L325 694L325 771L634 771L634 849L715 849L715 926L405 926L405 1003L367 1003L367 1080L0 1080L0 1003L0 1003L0 926L0 926L0 849L0 849L0 771L0 771L0 694L0 694L0 617L0 617L0 540L0 540L0 463L0 463L0 386L0 386L0 309L0 309L0 231L0 231L0 154L0 154L0 77L0 77L0 0L0 0Z" fill="#1f272f"></path><path d="M328 0L102 0L102 77L571 77L571 154L251 154L251 231L274 231L274 309L616 309L616 386L646 386L646 463L354 463L354 540L644 540L644 617L388 617L388 694L152 694L152 771L331 771L331 849L313 849L313 926L354 926L354 1003L343 1003L343 1080L0 1080L0 1003L0 1003L0 926L0 926L0 849L0 849L0 771L0 771L0 694L0 694L0 617L0 617L0 540L0 540L0 463L0 463L0 386L0 386L0 309L0 309L0 231L0 231L0 154L0 154L0 77L0 77L0 0L0 0Z" fill="#191c20"></path><path d="M376 0L314 0L314 77L143 77L143 154L120 154L120 231L238 231L238 309L171 309L171 386L228 386L228 463L134 463L134 540L166 540L166 617L354 617L354 694L379 694L379 771L216 771L216 849L434 849L434 926L215 926L215 1003L134 1003L134 1080L0 1080L0 1003L0 1003L0 926L0 926L0 849L0 849L0 771L0 771L0 694L0 694L0 617L0 617L0 540L0 540L0 463L0 463L0 386L0 386L0 309L0 309L0 231L0 231L0 154L0 154L0 77L0 77L0 0L0 0Z" fill="#121212"></path></svg>