<svg id="visual" viewBox="0 0 900 450" width="900" height="450" xmlns="http://www.w3.org/2000/svg" xmlns:xlink="http://www.w3.org/1999/xlink" version="1.1"><path d="M0 299L18.8 285.5C37.7 272 75.3 245 112.8 242C150.3 239 187.7 260 225.2 264.3C262.7 268.7 300.3 256.3 337.8 245C375.3 233.7 412.7 223.3 450.2 221.3C487.7 219.3 525.3 225.7 562.8 235.7C600.3 245.7 637.7 259.3 675.2 257C712.7 254.7 750.3 236.3 787.8 227.5C825.3 218.7 862.7 219.3 881.3 219.7L900 220L900 451L881.3 451C862.7 451 825.3 451 787.8 451C750.3 451 712.7 451 675.2 451C637.7 451 600.3 451 562.8 451C525.3 451 487.7 451 450.2 451C412.7 451 375.3 451 337.8 451C300.3 451 262.7 451 225.2 451C187.7 451 150.3 451 112.8 451C75.3 451 37.7 451 18.8 451L0 451Z" fill="#f5f5f5"></path><path d="M0 285L18.8 286.7C37.7 288.3 75.3 291.7 112.8 286C150.3 280.3 187.7 265.7 225.2 268.2C262.7 270.7 300.3 290.3 337.8 293.2C375.3 296 412.7 282 450.2 276.2C487.7 270.3 525.3 272.7 562.8 270.5C600.3 268.3 637.7 261.7 675.2 260.7C712.7 259.7 750.3 264.3 787.8 273.5C825.3 282.7 862.7 296.3 881.3 303.2L900 310L900 451L881.3 451C862.7 451 825.3 451 787.8 451C750.3 451 712.7 451 675.2 451C637.7 451 600.3 451 562.8 451C525.3 451 487.7 451 450.2 451C412.7 451 375.3 451 337.8 451C300.3 451 262.7 451 225.2 451C187.7 451 150.3 451 112.8 451C75.3 451 37.7 451 18.8 451L0 451Z" fill="#f9e2df"></path><path d="M0 276L18.8 281.2C37.7 286.3 75.3 296.7 112.8 296.7C150.3 296.7 187.7 286.3 225.2 286.3C262.7 286.3 300.3 296.7 337.8 298C375.3 299.3 412.7 291.7 450.2 285C487.7 278.3 525.3 272.7 562.8 279.8C600.3 287 637.7 307 675.2 314.2C712.7 321.3 750.3 315.7 787.8 312.2C825.3 308.7 862.7 307.3 881.3 306.7L900 306L900 451L881.3 451C862.7 451 825.3 451 787.8 451C750.3 451 712.7 451 675.2 451C637.7 451 600.3 451 562.8 451C525.3 451 487.7 451 450.2 451C412.7 451 375.3 451 337.8 451C300.3 451 262.7 451 225.2 451C187.7 451 150.3 451 112.8 451C75.3 451 37.7 451 18.8 451L0 451Z" fill="#fbcfca"></path><path d="M0 293L18.8 299.8C37.7 306.7 75.3 320.3 112.8 319.2C150.3 318 187.7 302 225.2 297.7C262.7 293.3 300.3 300.7 337.8 307.8C375.3 315 412.7 322 450.2 322.3C487.7 322.7 525.3 316.3 562.8 311.3C600.3 306.3 637.7 302.7 675.2 304.8C712.7 307 750.3 315 787.8 314.8C825.3 314.7 862.7 306.3 881.3 302.2L900 298L900 451L881.3 451C862.7 451 825.3 451 787.8 451C750.3 451 712.7 451 675.2 451C637.7 451 600.3 451 562.8 451C525.3 451 487.7 451 450.2 451C412.7 451 375.3 451 337.8 451C300.3 451 262.7 451 225.2 451C187.7 451 150.3 451 112.8 451C75.3 451 37.7 451 18.8 451L0 451Z" fill="#fcbcb5"></path><path d="M0 328L18.8 328.7C37.7 329.3 75.3 330.7 112.8 337.7C150.3 344.7 187.7 357.3 225.2 353.5C262.7 349.7 300.3 329.3 337.8 324.5C375.3 319.7 412.7 330.3 450.2 336.7C487.7 343 525.3 345 562.8 341.7C600.3 338.3 637.7 329.7 675.2 333C712.7 336.3 750.3 351.7 787.8 358.5C825.3 365.3 862.7 363.7 881.3 362.8L900 362L900 451L881.3 451C862.7 451 825.3 451 787.8 451C750.3 451 712.7 451 675.2 451C637.7 451 600.3 451 562.8 451C525.3 451 487.7 451 450.2 451C412.7 451 375.3 451 337.8 451C300.3 451 262.7 451 225.2 451C187.7 451 150.3 451 112.8 451C75.3 451 37.7 451 18.8 451L0 451Z" fill="#fca9a1"></path><path d="M0 387L18.8 382.2C37.7 377.3 75.3 367.7 112.8 364C150.3 360.3 187.7 362.7 225.2 364.5C262.7 366.3 300.3 367.7 337.8 371.3C375.3 375 412.7 381 450.2 383.3C487.7 385.7 525.3 384.3 562.8 383.7C600.3 383 637.7 383 675.2 381C712.7 379 750.3 375 787.8 374C825.3 373 862.7 375 881.3 376L900 377L900 451L881.3 451C862.7 451 825.3 451 787.8 451C750.3 451 712.7 451 675.2 451C637.7 451 600.3 451 562.8 451C525.3 451 487.7 451 450.2 451C412.7 451 375.3 451 337.8 451C300.3 451 262.7 451 225.2 451C187.7 451 150.3 451 112.8 451C75.3 451 37.7 451 18.8 451L0 451Z" fill="#fb958d"></path><path d="M0 360L18.8 366C37.7 372 75.3 384 112.8 386.3C150.3 388.7 187.7 381.3 225.2 378.8C262.7 376.3 300.3 378.7 337.8 377.5C375.3 376.3 412.7 371.7 450.2 371.5C487.7 371.3 525.3 375.7 562.8 379.5C600.3 383.3 637.7 386.7 675.2 385.7C712.7 384.7 750.3 379.3 787.8 380C825.3 380.7 862.7 387.3 881.3 390.7L900 394L900 451L881.3 451C862.7 451 825.3 451 787.8 451C750.3 451 712.7 451 675.2 451C637.7 451 600.3 451 562.8 451C525.3 451 487.7 451 450.2 451C412.7 451 375.3 451 337.8 451C300.3 451 262.7 451 225.2 451C187.7 451 150.3 451 112.8 451C75.3 451 37.7 451 18.8 451L0 451Z" fill="#f88179"></path><path d="M0 385L18.8 388C37.7 391 75.3 397 112.8 398.2C150.3 399.3 187.7 395.7 225.2 395C262.7 394.3 300.3 396.7 337.8 395.2C375.3 393.7 412.7 388.3 450.2 389.5C487.7 390.7 525.3 398.3 562.8 400.8C600.3 403.3 637.7 400.7 675.2 402C712.7 403.3 750.3 408.7 787.8 410C825.3 411.3 862.7 408.7 881.3 407.3L900 406L900 451L881.3 451C862.7 451 825.3 451 787.8 451C750.3 451 712.7 451 675.2 451C637.7 451 600.3 451 562.8 451C525.3 451 487.7 451 450.2 451C412.7 451 375.3 451 337.8 451C300.3 451 262.7 451 225.2 451C187.7 451 150.3 451 112.8 451C75.3 451 37.7 451 18.8 451L0 451Z" fill="#f56c66"></path><path d="M0 415L18.8 414C37.7 413 75.3 411 112.8 412.2C150.3 413.3 187.7 417.7 225.2 418.7C262.7 419.7 300.3 417.3 337.8 416.2C375.3 415 412.7 415 450.2 414.3C487.7 413.7 525.3 412.3 562.8 415.5C600.3 418.7 637.7 426.3 675.2 429.2C712.7 432 750.3 430 787.8 426.7C825.3 423.3 862.7 418.7 881.3 416.3L900 414L900 451L881.3 451C862.7 451 825.3 451 787.8 451C750.3 451 712.7 451 675.2 451C637.7 451 600.3 451 562.8 451C525.3 451 487.7 451 450.2 451C412.7 451 375.3 451 337.8 451C300.3 451 262.7 451 225.2 451C187.7 451 150.3 451 112.8 451C75.3 451 37.7 451 18.8 451L0 451Z" fill="#f05454"></path></svg>